<?xml version="1.0" encoding="UTF-8" standalone="no"?>
<!-- Created with Inkscape (http://www.inkscape.org/) -->

<svg
   xmlns:dc="http://purl.org/dc/elements/1.1/"
   xmlns:cc="http://creativecommons.org/ns#"
   xmlns:rdf="http://www.w3.org/1999/02/22-rdf-syntax-ns#"
   xmlns:svg="http://www.w3.org/2000/svg"
   xmlns="http://www.w3.org/2000/svg"
   xmlns:sodipodi="http://sodipodi.sourceforge.net/DTD/sodipodi-0.dtd"
   xmlns:inkscape="http://www.inkscape.org/namespaces/inkscape"
   width="140.86076"
   height="53.295448"
   viewBox="0 0 37.269408 14.101087"
   version="1.1"
   id="svg340"
   inkscape:version="0.92.0 r15299"
   sodipodi:docname="copart.svg">
  <defs
     id="defs334" />
  <sodipodi:namedview
     id="base"
     pagecolor="#ffffff"
     bordercolor="#666666"
     borderopacity="1.0"
     inkscape:pageopacity="0.0"
     inkscape:pageshadow="2"
     inkscape:zoom="6.4135211"
     inkscape:cx="69.930385"
     inkscape:cy="26.147725"
     inkscape:document-units="mm"
     inkscape:current-layer="layer1"
     showgrid="false"
     fit-margin-top="0"
     fit-margin-left="0"
     fit-margin-right="0"
     fit-margin-bottom="0"
     units="px"
     inkscape:window-width="1280"
     inkscape:window-height="744"
     inkscape:window-x="-4"
     inkscape:window-y="-4"
     inkscape:window-maximized="1" />
  <metadata
     id="metadata337">
    <rdf:RDF>
      <cc:Work
         rdf:about="">
        <dc:format>image/svg+xml</dc:format>
        <dc:type
           rdf:resource="http://purl.org/dc/dcmitype/StillImage" />
        <dc:title></dc:title>
      </cc:Work>
    </rdf:RDF>
  </metadata>
  <g
     inkscape:label="Layer 1"
     inkscape:groupmode="layer"
     id="layer1"
     transform="translate(-69.188062,-210.44216)">
    <g
       transform="translate(68.812308,-176.84092)"
       id="g310">
      <path
         transform="matrix(0.26458333,0,0,0.26458333,6.8682607,387.41417)"
         style="fill:#032b76;fill-rule:evenodd;stroke:none;stroke-width:1"
         inkscape:connector-curvature="0"
         d="M 114.39829,26.138305 C 107.38002,40.559461 76.338833,52.299999 45.30057,52.299999 14.231122,52.299999 -5.3628614,40.559461 1.654759,26.138305 8.6444427,11.773347 39.712591,0.00454783 70.754103,0.00454783 c 31.068147,0 50.658887,11.76879917 43.644187,26.13375717 z"
         id="Fill-1"
         mask="none" />
      <path
         transform="matrix(0.26458333,0,0,0.26458333,6.8682607,387.41417)"
         style="fill:#0a0a08;fill-rule:evenodd;stroke:none;stroke-width:1"
         inkscape:connector-curvature="0"
         d="m 70.056336,0.56165651 c 30.187174,0 49.186364,11.40627249 42.320124,25.35250549 -6.83798,13.97547 -37.052442,25.382717 -67.17984,25.382717 -30.185871,0 -49.1866876,-11.407247 -42.3493561,-25.382717 C 7.2856173,16.92311 21.342947,9.0326322 38.834861,4.5065707 40.076742,4.1687322 41.350134,3.8945633 42.62255,3.587585 51.322541,1.6628801 60.704707,0.56165651 70.056336,0.56165651"
         id="Fill-3"
         mask="none" />
      <path
         transform="matrix(0.26458333,0,0,0.26458333,6.8682607,387.41417)"
         style="fill:#969998;fill-rule:evenodd;stroke:none;stroke-width:1"
         inkscape:connector-curvature="0"
         d="m 69.603178,1.3201689 c 29.806452,0 48.605212,11.0083381 41.873132,24.4465141 -6.73273,13.490151 -36.513194,24.47445 -66.292034,24.47445 -29.807426,0 -48.6058654,-10.984299 -41.8724841,-24.47445 C 10.017561,12.328507 39.823363,1.3201689 69.603178,1.3201689"
         id="Fill-4"
         mask="none" />
      <path
         id="Fill-6"
         d="m 24.027019,388.37112 c 7.124872,0 11.609321,2.60519 9.988677,5.79061 -1.613943,3.19213 -8.745518,5.79757 -15.856295,5.79757 -7.124701,0 -11.6094076,-2.60544 -9.9956388,-5.79757 1.0476265,-2.05357 4.3654958,-3.85591 8.4940318,-4.88953 0.293171,-0.0772 0.593733,-0.13983 0.894037,-0.2098 2.053481,-0.43979 4.267858,-0.69128 6.475188,-0.69128"
         inkscape:connector-curvature="0"
         style="fill:#0a0a08;fill-rule:evenodd;stroke:none;stroke-width:0.26458332" />
      <path
         style="fill:#0d5db8;fill-rule:evenodd;stroke:none;stroke-width:0.26458332"
         inkscape:connector-curvature="0"
         d="m 32.846452,391.54889 c 0.341902,0.56786 0.405074,1.20698 0.134424,1.87703 -0.25355,0.50718 -0.544314,0.91553 -0.977664,1.31725 -2.247898,2.07686 -7.306225,3.62591 -12.357848,3.62591 -5.956231,0 -9.7122658,-2.15241 -8.355311,-4.7912 0.932369,-1.81652 4.091922,-3.46794 7.875633,-4.28402 0.445127,-0.0958 0.897388,-0.17121 1.356525,-0.23988 -0.890169,0.0893 -1.761171,0.21934 -2.617562,0.4043 -4.194888,0.92558 -7.752124,2.41997 -8.7874599,4.48978 -1.5008328,3.00914 2.6594179,5.4628 9.2672249,5.4628 5.414067,0 10.83613,-1.6448 13.440625,-3.90017 0.294116,-0.25312 0.638341,-0.61075 0.908476,-0.99176 0.111561,-0.15419 0.209285,-0.31027 0.290935,-0.46782 0.466186,-0.90495 0.377143,-1.76177 -0.177998,-2.50222"
         id="Fill-7" />
      <path
         style="fill:#ffffff;fill-rule:evenodd;stroke:none;stroke-width:0.26458332"
         inkscape:connector-curvature="0"
         d="m 4.6373816,393.68781 c -0.1262584,0.19845 -0.2529467,0.34499 -0.3765404,0.43567 l -0.0049,0.004 c -0.1426747,0.11216 -0.3295267,0.16914 -0.5553993,0.16914 -0.1467141,0 -0.2474458,-0.0293 -0.2755509,-0.0791 -0.00292,-0.007 -0.069103,-0.18986 0.1351971,-0.84797 0.135111,-0.41685 0.2925686,-0.71466 0.4679894,-0.88518 0.2177936,-0.21797 0.4514874,-0.31947 0.7354612,-0.31947 0.089215,0 0.1633022,0.0138 0.2084253,0.0387 0.033778,0.0191 0.060508,0.0341 0.071079,0.15685 l 0.041255,0.48045 H 7.3489691 C 7.20681,393.02922 7.085193,393.23223 6.9875554,393.44478 H 4.7920888 l -0.1547072,0.24332 z m 5.4895304,0.13966 c -0.08449,0.26894 -0.1933841,0.4643 -0.3148295,0.56451 -0.1241954,0.0994 -0.228537,0.1438 -0.338465,0.1438 -0.022775,0 -0.037302,-0.002 -0.04581,-0.004 -0.00481,-0.0297 -0.012033,-0.13511 0.063516,-0.37602 0.072111,-0.24539 0.1781712,-0.43164 0.3063203,-0.53864 0.1174056,-0.0939 0.2261312,-0.1358 0.3523892,-0.1358 0.0153,0 0.0263,8.5e-4 0.03395,0.002 0.0046,0.0333 0.0076,0.13245 -0.05707,0.34422 z m 5.407707,-0.005 c -0.06953,0.23756 -0.162958,0.41462 -0.263088,0.49867 -0.08165,0.0688 -0.150668,0.1022 -0.210917,0.1022 -0.0061,0 -0.0116,-1.8e-4 -0.01659,-3.5e-4 0.0013,-0.0414 0.01075,-0.12454 0.0538,-0.26334 0.09343,-0.30435 0.198885,-0.4349 0.271082,-0.49103 0.08251,-0.0673 0.153418,-0.10253 0.227935,-0.11293 -0.0044,0.0503 -0.01882,0.13399 -0.06051,0.26137 l -0.0017,0.005 z m 15.912161,-2.36315 0.600522,-1.92491 -3.086669,1.28029 -0.0789,0.0328 -0.190547,0.61179 h -0.611955 l -0.02511,0.0802 c -0.258191,-0.11552 -0.512943,-0.17173 -0.778436,-0.17173 -0.208166,0 -0.405849,0.0308 -0.58763,0.0915 h -2.41756 l -0.457503,1.46129 c 6.08e-4,-0.0597 -0.001,-0.12084 -0.0051,-0.18272 -0.02175,-0.31724 -0.133221,-0.59829 -0.313712,-0.79082 -0.224842,-0.2569 -0.541992,-0.42252 -0.942512,-0.49248 -0.296866,-0.0592 -0.699535,-0.0868 -1.267396,-0.0868 -0.332191,0 -0.645903,0.0225 -0.9591,0.069 -0.354107,0.0547 -0.613844,0.12643 -0.817112,0.22553 -0.301421,0.13081 -0.55136,0.28981 -0.742337,0.47246 -0.168373,0.1535 -0.322221,0.34903 -0.469966,0.59691 -0.03025,-0.15531 -0.07667,-0.30478 -0.138206,-0.44496 -0.19579,-0.41925 -0.63662,-0.91896 -1.625286,-0.91896 -0.244179,0 -0.474693,0.0307 -0.703746,0.0939 l 7.67e-4,-0.002 h -2.64051 l -0.380064,1.21428 c -0.04409,-0.12566 -0.102106,-0.24762 -0.17267,-0.36305 -0.39777,-0.62562 -1.132372,-0.94277 -2.18335,-0.94277 -0.8620634,0 -1.6293255,0.23094 -2.2803854,0.68656 -0.119984,0.0844 -0.2348973,0.1749 -0.3417313,0.2691 v -0.008 c 0,-0.89567 -0.2432341,-1.52929 -0.7433686,-1.93694 -0.4358447,-0.37198 -1.0783956,-0.55282 -1.9644389,-0.55282 -1.0570805,0 -1.9875588,0.28483 -2.7657365,0.84685 -0.7738803,0.56374 -1.3243804,1.36693 -1.63602966,2.38696 -0.25225884,0.79657 -0.2805359,1.48029 -0.0841436,2.03251 0.21040192,0.57672 0.55857926,0.98772 1.03473396,1.22116 0.4279376,0.21401 1.0110981,0.32239 1.7332373,0.32239 0.6006941,0 1.1262693,-0.0843 1.561856,-0.2508 0.4396267,-0.1596 0.8559613,-0.40894 1.2376584,-0.74122 0.1741318,-0.15659 0.3656251,-0.36399 0.540874,-0.58565 0.093254,0.43353 0.3205879,0.74002 0.4965245,0.92188 0.4302582,0.43043 1.0698868,0.64874 1.9012667,0.64874 0.8735801,0 1.6500391,-0.23317 2.3076311,-0.69334 0.163044,-0.11414 0.315517,-0.23954 0.453808,-0.37328 l -0.783592,2.50317 h 2.762126 l 0.500565,-1.58928 c 0.240913,0.10142 0.518269,0.15273 0.824761,0.15273 0.643153,0 1.244964,-0.21521 1.788674,-0.63988 0.15531,-0.12188 0.301422,-0.26232 0.434728,-0.41763 0.04908,0.20018 0.146886,0.38247 0.290678,0.54208 0.303656,0.3468 0.78024,0.51543 1.456913,0.51543 0.44633,0 0.864728,-0.0668 1.243674,-0.19862 0.06223,-0.022 0.125915,-0.0472 0.189517,-0.0749 l 0.06068,0.18169 h 4.76361 l 0.537866,-1.71957 c 0.223981,-0.71174 0.429141,-0.99606 0.53099,-1.10169 0.0985,-0.088 0.164419,-0.10013 0.220973,-0.10013 0.0064,0 0.06764,0.002 0.216762,0.0677 l 0.37147,0.16416 0.176538,-0.21272 0.5193,0.001 -0.228021,0.72868 c -0.178173,0.54267 -0.238249,0.9297 -0.189002,1.2178 0.05148,0.35239 0.24143,0.6441 0.534858,0.82115 0.250539,0.15359 0.612815,0.2251 1.139936,0.2251 0.384704,0 0.814017,-0.0458 1.276334,-0.13623 l 0.224499,-0.0439 0.119467,-0.0236 0.462402,-2.26809 -0.827426,0.24272 0.236961,-0.76314 h 0.907272 l 0.679939,-2.17725 h -0.901171 z"
         id="Fill-9" />
      <path
         id="Fill-11"
         d="m 4.8688407,393.58407 -0.1136237,0.17869 c -0.1356268,0.21306 -0.2740899,0.37241 -0.4129826,0.47426 -0.1677715,0.13193 -0.3837601,0.19897 -0.6416916,0.19897 -0.2073936,0 -0.3413014,-0.051 -0.3980275,-0.15187 -0.018738,-0.0326 -0.1006456,-0.23189 0.1241097,-0.95575 0.1426744,-0.44014 0.3122509,-0.75789 0.5045178,-0.94474 0.2410854,-0.24135 0.5134562,-0.35867 0.8324969,-0.35867 0.1157727,0 0.208683,0.0189 0.2758088,0.056 0.07976,0.045 0.128665,0.10305 0.1428464,0.2673 l 0.030254,0.35273 h 2.433288 c -0.2401401,0.26524 -0.4300003,0.56047 -0.5674321,0.88312 z m 5.3917213,0.28389 c -0.09429,0.29996 -0.215301,0.51259 -0.3591789,0.63137 -0.1499801,0.12007 -0.2858646,0.17611 -0.4277656,0.17611 -0.1260007,0 -0.1517851,-0.0441 -0.1690608,-0.0737 -0.0067,-0.0111 -0.061969,-0.11921 0.053546,-0.48819 0.08062,-0.27383 0.1984552,-0.47693 0.3495527,-0.6031 0.1437918,-0.11508 0.2843175,-0.16872 0.4423766,-0.16872 0.116203,0 0.1364,0.0345 0.158489,0.072 0.0025,0.004 0.05999,0.10133 -0.04796,0.45424 z m 4.703789,0.24985 c 0.08242,-0.26816 0.192611,-0.46172 0.319471,-0.5603 0.121273,-0.099 0.235928,-0.14525 0.360983,-0.14525 0.06412,0 0.06842,0.008 0.0832,0.0347 0.01272,0.0217 0.02905,0.14405 -0.05931,0.41427 -0.07839,0.26756 -0.184617,0.46352 -0.307352,0.56649 -0.107779,0.0908 -0.20619,0.13485 -0.300733,0.13485 -0.114226,0 -0.133307,-0.0319 -0.145855,-0.0528 -4.23e-4,-9.5e-4 -0.04401,-0.0895 0.04959,-0.39201 z m 3.10764,-0.0685 c 0.05612,-0.19914 0.09411,-0.3933 0.113366,-0.57904 l 0.732969,0.0743 c -0.266527,0.0905 -0.483289,0.20224 -0.658623,0.33907 -0.06635,0.0514 -0.129009,0.10683 -0.187712,0.16562 z m 13.493399,-0.55282 0.592613,-1.89792 H 31.25692 l 0.568119,-1.82116 -2.82951,1.17363 -0.201462,0.64753 h -0.612211 l -0.04315,0.13769 c -0.288096,-0.15419 -0.570954,-0.22922 -0.863007,-0.22922 -0.201636,0 -0.391152,0.0308 -0.564424,0.0915 h -2.338143 l -1.386177,4.42807 -0.01289,-0.0782 c -0.03094,-0.18703 -0.03404,-0.28011 -0.03129,-0.3248 0.0033,-0.0469 0.02037,-0.14698 0.08225,-0.35609 l 0.554626,-1.77509 c 0.07744,-0.2337 0.10649,-0.47762 0.08887,-0.74586 -0.0196,-0.28638 -0.118437,-0.53744 -0.27727,-0.70564 -0.20344,-0.23344 -0.494118,-0.38462 -0.862837,-0.449 -0.290506,-0.0579 -0.685783,-0.0849 -1.244105,-0.0849 -0.325315,0 -0.632323,0.022 -0.938643,0.0676 -0.341044,0.0526 -0.589005,0.12076 -0.778264,0.21375 -0.287927,0.12454 -0.525231,0.27495 -0.704606,0.44642 -0.191063,0.17439 -0.364335,0.40783 -0.529786,0.71372 l -0.133736,0.24718 c 2.58e-4,-0.30993 -0.05655,-0.59622 -0.16992,-0.85389 -0.177828,-0.38084 -0.581957,-0.83482 -1.497051,-0.83482 -0.318955,0 -0.620376,0.0565 -0.917415,0.17215 l 0.02492,-0.0806 h -2.34837 l -0.515605,1.64703 c -0.01315,-0.31345 -0.09987,-0.60267 -0.259221,-0.86301 -0.369407,-0.58101 -1.063785,-0.87555 -2.063881,-0.87555 -0.8328415,0 -1.5731157,0.22243 -2.2003679,0.66137 -0.2092847,0.14732 -0.3965663,0.30873 -0.5614154,0.48372 v -0.33683 c 0,-0.85106 -0.2264744,-1.44927 -0.6913698,-1.82839 -0.4114355,-0.35109 -1.0253657,-0.5217 -1.8767716,-0.5217 -1.0270844,0 -1.9301451,0.27598 -2.6840855,0.82038 -0.7485254,0.54542 -1.281492,1.3242 -1.58403074,2.31433 -0.24314829,0.76778 -0.27219888,1.42228 -0.0861204,1.94536 0.19733774,0.54087 0.52187934,0.92523 0.96425624,1.14225 0.4092867,0.20448 0.9718196,0.30822 1.6720419,0.30822 0.5835044,0 1.0923196,-0.0813 1.5116622,-0.24135 0.4251873,-0.15453 0.8275982,-0.39553 1.196575,-0.71664 0.245125,-0.22045 0.5159488,-0.53571 0.7288432,-0.8459 0.015901,0.56855 0.2752931,0.95824 0.5005641,1.19107 0.4018092,0.4019 1.0076603,0.60577 1.8005351,0.60577 0.8444439,0 1.5939146,-0.22476 2.2276126,-0.66817 0.35385,-0.24778 0.647021,-0.54285 0.874784,-0.88028 l -0.934518,2.98499 h 2.469644 l 0.51741,-1.64247 c 0.03111,0.0159 0.06292,0.0308 0.09463,0.0443 0.23378,0.10735 0.508213,0.16167 0.815737,0.16167 0.611265,0 1.184112,-0.20525 1.702811,-0.61032 0.234984,-0.18453 0.44487,-0.41049 0.625706,-0.67332 -0.01814,0.38169 0.140869,0.64968 0.289044,0.8141 0.276669,0.31595 0.719389,0.46954 1.353431,0.46954 0.430602,0 0.833615,-0.0642 1.19795,-0.19089 0.103139,-0.0365 0.209887,-0.0819 0.318096,-0.13537 l 0.07838,0.23447 h 4.560427 l 0.507098,-1.62142 c 0.223037,-0.70839 0.432321,-1.02296 0.566917,-1.16031 0.106576,-0.0966 0.204901,-0.13966 0.318439,-0.13966 0.02785,0 0.110358,0.008 0.27323,0.0796 l 0.274949,0.12162 0.151183,-0.18212 0.774655,0.002 -0.28449,0.90925 c -0.17181,0.52334 -0.230341,0.89034 -0.184616,1.15411 0.04495,0.31139 0.211518,0.56855 0.468934,0.72403 0.228365,0.13993 0.567775,0.20499 1.067996,0.20499 0.37551,0 0.795883,-0.0449 1.249434,-0.13365 l 0.2526,-0.0494 0.397513,-1.94983 -0.61436,0.18032 c -0.08792,0.0257 -0.1676,0.0465 -0.237733,0.0616 l 0.341902,-1.10126 h 0.907532 z"
         inkscape:connector-curvature="0"
         style="fill:#0a0a08;fill-rule:evenodd;stroke:none;stroke-width:0.26458332" />
      <path
         id="Fill-12"
         d="m 6.8124801,393.96981 c -0.1899462,0.43636 -0.6055071,0.96442 -0.9573804,1.28114 -0.3241117,0.282 -0.6832045,0.50014 -1.0703166,0.64092 -0.3871979,0.14766 -0.8516636,0.21823 -1.3799031,0.21823 -0.6478797,0 -1.1474983,-0.0916 -1.4995434,-0.26765 -0.3590069,-0.17602 -0.6126409,-0.48587 -0.77431,-0.92936 -0.15539489,-0.43645 -0.1270319,-1.0068 0.091363,-1.69679 0.2817392,-0.9218 0.7674342,-1.62649 1.4434191,-2.11889 0.6826889,-0.49283 1.4994576,-0.74655 2.4570096,-0.74655 0.7461191,0 1.2882821,0.14095 1.6263175,0.42957 0.4575897,0.37293 0.5561727,0.98566 0.5561727,1.53487 h -1.738738 c -0.02123,-0.24642 -0.1128503,-0.44367 -0.3379496,-0.57036 -0.1271177,-0.0705 -0.2818252,-0.10571 -0.4649814,-0.10571 -0.4153889,0 -0.7885774,0.15479 -1.1053834,0.47177 -0.2391947,0.23249 -0.4365326,0.59854 -0.5985454,1.09825 -0.1900321,0.61247 -0.2250132,1.03525 -0.091449,1.26739 0.1268599,0.22562 0.3733603,0.345 0.7322811,0.345 0.3521311,0 0.647708,-0.0987 0.8801987,-0.28148 0.1828982,-0.13399 0.351873,-0.33786 0.4998764,-0.57035 h 1.7318622"
         inkscape:connector-curvature="0"
         style="fill:#ffffff;fill-rule:evenodd;stroke:none;stroke-width:0.26458332" />
      <path
         id="Fill-13"
         d="m 10.628507,393.98382 c -0.119554,0.38032 -0.281567,0.64788 -0.485952,0.81651 -0.2111758,0.16923 -0.4292271,0.26076 -0.6689375,0.26076 -0.232061,0 -0.4011218,-0.0915 -0.4996188,-0.26076 -0.1057167,-0.1756 -0.098583,-0.43619 0.014097,-0.7958 0.1055447,-0.35875 0.2673858,-0.61917 0.4784754,-0.79528 0.2112613,-0.16924 0.43679,-0.25321 0.6834619,-0.25321 0.224842,0 0.386769,0.084 0.485609,0.25321 0.105545,0.16897 0.09833,0.42974 -0.0071,0.77457 z m 1.562716,-1.39418 c -0.295491,-0.46472 -0.872721,-0.69695 -1.73848,-0.69695 -0.7537685,0 -1.4156579,0.19742 -1.9784488,0.59132 -0.5705261,0.40138 -0.9509342,0.90839 -1.1407944,1.52052 -0.2111754,0.66215 -0.1126784,1.19743 0.2818251,1.60569 0.3235963,0.32377 0.8304345,0.49283 1.5277346,0.49283 0.7739663,0 1.4431615,-0.2043 2.0063815,-0.59846 0.563135,-0.39425 0.936495,-0.90126 1.133403,-1.52077 0.176022,-0.54913 0.140956,-1.01385 -0.09162,-1.39418 z"
         inkscape:connector-curvature="0"
         style="fill:#ffffff;fill-rule:evenodd;stroke:none;stroke-width:0.26458332" />
      <path
         id="Fill-14"
         d="m 16.038879,393.96981 c -0.105287,0.359 -0.253118,0.60533 -0.429226,0.75316 -0.175937,0.14801 -0.358835,0.22545 -0.549039,0.22545 -0.21831,0 -0.380323,-0.0774 -0.471858,-0.23267 -0.0985,-0.15453 -0.09119,-0.3939 0.007,-0.71122 0.105803,-0.3444 0.253634,-0.59812 0.44401,-0.74569 0.189775,-0.15505 0.386769,-0.23232 0.605078,-0.23232 0.190204,0 0.331159,0.0704 0.415732,0.22501 0.09102,0.15488 0.08449,0.39425 -0.02166,0.71828 z m 1.641015,-1.46474 c -0.190548,-0.408 -0.570526,-0.61238 -1.147584,-0.61238 -0.288873,0 -0.570526,0.0562 -0.852008,0.17619 -0.204299,0.0843 -0.4508,0.25312 -0.74629,0.50667 l 0.182812,-0.59133 h -1.541916 l -1.738996,5.55537 h 1.661814 l 0.605593,-1.92241 c 0.112421,0.16201 0.267386,0.28157 0.45037,0.35918 0.183071,0.0841 0.401294,0.12669 0.65467,0.12669 0.520934,0 1.014106,-0.17628 1.464562,-0.52798 0.45759,-0.35918 0.788492,-0.86611 0.999581,-1.53513 0.190376,-0.61238 0.190376,-1.11931 0.0074,-1.53487 z"
         inkscape:connector-curvature="0"
         style="fill:#ffffff;fill-rule:evenodd;stroke:none;stroke-width:0.26458332" />
      <path
         id="Fill-15"
         d="m 21.298669,394.34299 c -0.06369,0.19012 -0.141557,0.35188 -0.247015,0.47169 -0.105545,0.11955 -0.246415,0.21805 -0.429227,0.30271 -0.183157,0.0846 -0.365797,0.12677 -0.556431,0.12677 -0.175593,0 -0.295663,-0.0422 -0.358577,-0.11981 -0.07056,-0.0773 -0.085,-0.17593 -0.04263,-0.29549 0.02853,-0.10589 0.105545,-0.19716 0.225615,-0.28182 0.112421,-0.0845 0.35153,-0.16193 0.71088,-0.24659 0.267644,-0.0633 0.520762,-0.12669 0.774053,-0.20404 z m 1.984981,-1.5701 c -0.01393,-0.20404 -0.07735,-0.36606 -0.1835,-0.47839 -0.147316,-0.16958 -0.365883,-0.27512 -0.647278,-0.3242 -0.28131,-0.0563 -0.676157,-0.0776 -1.168556,-0.0776 -0.310016,0 -0.598373,0.0213 -0.880113,0.0633 -0.274777,0.0421 -0.507268,0.0988 -0.675813,0.18324 -0.246586,0.10555 -0.45037,0.23224 -0.605335,0.38024 -0.161841,0.14775 -0.309758,0.3517 -0.450714,0.61256 l 1.527047,0.1547 c 0.120414,-0.17593 0.239882,-0.29557 0.366828,-0.35909 0.162013,-0.0775 0.373189,-0.11964 0.647622,-0.11964 0.211004,0 0.344997,0.0351 0.408084,0.11259 0.0569,0.0774 0.0569,0.21144 0,0.40147 -0.231803,0.0703 -0.443666,0.13365 -0.640403,0.18307 -0.204127,0.042 -0.626822,0.12694 -1.28132,0.24615 -0.54921,0.0915 -0.95059,0.2392 -1.203794,0.43679 -0.253291,0.197 -0.429485,0.45072 -0.521106,0.75334 -0.105459,0.33099 -0.05595,0.60517 0.140783,0.82356 0.197424,0.22544 0.549211,0.33804 1.063269,0.33804 0.386683,0 0.745776,-0.0566 1.069458,-0.16906 0.23971,-0.0846 0.500564,-0.22519 0.774653,-0.41531 -0.01409,0.11251 -0.0208,0.19691 -0.0208,0.25338 0,0.0566 0.01358,0.13322 0.04899,0.23919 h 1.541744 c -0.02785,-0.1688 -0.04211,-0.3095 -0.03524,-0.41487 0.0074,-0.10589 0.04263,-0.25389 0.09867,-0.44375 l 0.556861,-1.78128 c 0.06274,-0.19021 0.08389,-0.3872 0.06996,-0.59846 z"
         inkscape:connector-curvature="0"
         style="fill:#ffffff;fill-rule:evenodd;stroke:none;stroke-width:0.26458332" />
      <path
         id="Fill-16"
         d="m 24.656505,391.98422 h 1.54183 l -0.204127,0.65459 c 0.239538,-0.28148 0.457675,-0.47848 0.647965,-0.58402 0.189861,-0.11277 0.400863,-0.1621 0.633527,-0.1621 0.246499,0 0.485524,0.0705 0.731766,0.21126 l -0.851752,1.09842 c -0.175762,-0.0778 -0.316461,-0.1125 -0.429053,-0.1125 -0.218223,0 -0.408771,0.084 -0.58488,0.24641 -0.238851,0.23928 -0.464637,0.67616 -0.668249,1.32326 l -0.422867,1.35171 h -1.654852 l 1.260692,-4.02703"
         inkscape:connector-curvature="0"
         style="fill:#ffffff;fill-rule:evenodd;stroke:none;stroke-width:0.26458332" />
      <path
         id="Fill-17"
         d="m 31.211282,390.44953 -0.478647,1.53469 h 0.900999 l -0.351875,1.12662 h -0.908045 l -0.443838,1.42932 c -0.05655,0.1688 -0.07048,0.28148 -0.05655,0.33778 0.02819,0.0847 0.105802,0.13399 0.246071,0.13399 0.120242,0 0.302881,-0.0353 0.542763,-0.10589 l -0.218223,1.07032 c -0.429397,0.0841 -0.823902,0.12669 -1.17543,0.12669 -0.415303,0 -0.704519,-0.049 -0.866362,-0.14818 -0.162184,-0.0981 -0.260337,-0.25312 -0.2887,-0.45028 -0.0355,-0.20387 0.02133,-0.52798 0.169145,-0.9787 l 0.442894,-1.41505 H 28.11344 l 0.351959,-1.12662 h 0.612384 l 0.232489,-0.74612 1.90101,-0.78857"
         inkscape:connector-curvature="0"
         style="fill:#ffffff;fill-rule:evenodd;stroke:none;stroke-width:0.26458332" />
    </g>
  </g>
</svg>
