<?xml version="1.0" encoding="UTF-8"?>
<svg id="Camada_2" data-name="Camada 2" xmlns="http://www.w3.org/2000/svg" viewBox="0 0 395.64 77.1">
  <defs>
    <style>
      .cls-1 {
        fill: #080808;
      }

      .cls-2 {
        fill: #054dae;
      }
    </style>
  </defs>
  <g id="Camada_1-2" data-name="Camada 1">
    <g>
      <path class="cls-2" d="M0,6.49c.72-2.34,13.5-2.03,15.54-.57l24.88,41.98L66.37,6.01l32.94,54.88c1.4.3,1.67-.82,2.32-1.67,1.33-1.75,10.02-16.61,9.96-17.62-5.25-12.61-14.99-23.64-18.78-36.6h14.47c1.39,0,11.73,17.93,12.49,20.96l2.05-.61c1.75-3.45,9.41-18.64,11.9-19.85,2.07-1.01,14.31-1.21,14.97,1.05.82,2.84-17.92,29.36-18.89,34.89,5.56,12.12,14.74,22.87,18.9,35.42h-15.47c-1.15,0-10.06-17.35-11.5-19.95-.62-.51-1.41-.11-2.06.62-2.33,2.6-10.12,18.95-11.6,19.35-3.22-.68-15.27.97-17.1-.18-.64-.4-4.85-10.82-6.64-10.82h-23.45c1.54-7.49,5.95-16.28,14.97-14.98l-8.99-16.95-25.45,41.91c-1.75.43-3.66-3.25-4.5-4.47-7.6-10.99-12.7-23.85-20.92-34.45l-1.01,39.92H0V6.49Z"/>
      <g>
        <path class="cls-1" d="M321.36,73.85c-.26-.27.19-3.04,0-3.99-2.53.12-3.56,2.41-5.97,3.5-9.58,4.32-20.4.67-26.37-7.58-10.89-15.03-.78-38.44,18.73-37.77,4.06.14,10.72,4.02,12.1,3.98.51-.02.42-1.85,1.2-2.04,3.94-.97,10.93.68,15.3,0v43.91c-2.24-.4-14.46.55-14.97,0ZM303.74,44.26c-4.45,4.35-3.27,14.36,2.9,16.86,8.19,3.32,15.41-1.92,14.78-10.71-.6-8.33-11.74-11.95-17.68-6.15Z"/>
        <path class="cls-1" d="M367.07,28.19c34.25-2.65,38.85,42.75,7.57,46.55-39.64,4.81-41.63-43.91-7.57-46.55ZM376.9,44.26c-9.51-9.58-24.17,4.77-15.17,14.67,9.53,10.48,24.44-5.32,15.17-14.67Z"/>
        <path class="cls-1" d="M230.54,53.89h-31.94c-.16,6.02,5.67,9.42,11.21,8.8,3.58-.4,7.91-4.75,9.06-4.65.73.07,8.1,3.86,9.39,4.62.6.35,1.96.03,1.26,1.7-.26.62-4.59,4.78-5.51,5.48-20.43,15.55-51.77-5.1-38.83-28.85,12.27-22.52,48.26-13.83,45.34,12.91ZM215.57,45.91c-.26-10.49-16.71-10.49-16.97,0h16.97Z"/>
        <rect class="cls-1" x="262.48" width="15.97" height="73.85"/>
        <rect class="cls-1" x="160.68" width="14.97" height="73.85"/>
        <rect class="cls-1" x="236.53" y="29.94" width="15.97" height="43.91"/>
        <path class="cls-1" d="M332.33,5.99c-2.24,9.42-5.27,16.66-16.4,14.9-2.31-.37-4.22-1.96-6.48-2.49-9.38-2.17-6.33,2.33-9.73,3.37-2.15.66-5.02-.01-7.31.18-.31-4.98,3.94-13.98,8.94-15.54,6.43-2.01,15.45,6,20,3.07.97-.63,1.1-2.8,2.65-3.34,2.23-.77,5.85.18,8.33-.15Z"/>
        <path class="cls-1" d="M241.22,3.2c13.66-4.06,17.61,14.59,6.53,17.51-13.09,3.44-15.99-14.69-6.53-17.51Z"/>
      </g>
    </g>
  </g>
</svg>